<mxfile host="Electron" agent="Mozilla/5.0 (X11; Linux x86_64) AppleWebKit/537.36 (KHTML, like Gecko) draw.io/28.2.8 Chrome/140.0.7339.249 Electron/38.5.0 Safari/537.36" version="28.2.8">
  <diagram name="PÃ¡gina-1" id="AUzd9HYAF78ZB8-kdAsQ">
    <mxGraphModel dx="2037" dy="1206" grid="1" gridSize="10" guides="1" tooltips="1" connect="1" arrows="1" fold="1" page="1" pageScale="1" pageWidth="827" pageHeight="1169" math="0" shadow="0">
      <root>
        <mxCell id="0" />
        <mxCell id="1" parent="0" />
        <mxCell id="GoWQ3y0VbU6WLdOOm67q-1" value="AWS Cloud" style="points=[[0,0],[0.25,0],[0.5,0],[0.75,0],[1,0],[1,0.25],[1,0.5],[1,0.75],[1,1],[0.75,1],[0.5,1],[0.25,1],[0,1],[0,0.75],[0,0.5],[0,0.25]];outlineConnect=0;gradientColor=none;html=1;whiteSpace=wrap;fontSize=12;fontStyle=0;container=1;pointerEvents=0;collapsible=0;recursiveResize=0;shape=mxgraph.aws4.group;grIcon=mxgraph.aws4.group_aws_cloud_alt;strokeColor=#232F3E;fillColor=none;verticalAlign=top;align=left;spacingLeft=30;fontColor=#232F3E;dashed=0;" vertex="1" parent="1">
          <mxGeometry x="530" y="90" width="1080" height="1040" as="geometry" />
        </mxCell>
        <mxCell id="GoWQ3y0VbU6WLdOOm67q-52" value="CloudFront" style="sketch=0;points=[[0,0,0],[0.25,0,0],[0.5,0,0],[0.75,0,0],[1,0,0],[0,1,0],[0.25,1,0],[0.5,1,0],[0.75,1,0],[1,1,0],[0,0.25,0],[0,0.5,0],[0,0.75,0],[1,0.25,0],[1,0.5,0],[1,0.75,0]];outlineConnect=0;fontColor=#232F3E;fillColor=#8C4FFF;strokeColor=#ffffff;dashed=0;verticalLabelPosition=bottom;verticalAlign=top;align=center;html=1;fontSize=12;fontStyle=0;aspect=fixed;shape=mxgraph.aws4.resourceIcon;resIcon=mxgraph.aws4.cloudfront;" vertex="1" parent="GoWQ3y0VbU6WLdOOm67q-1">
          <mxGeometry x="60" y="180" width="50" height="50" as="geometry" />
        </mxCell>
        <mxCell id="GoWQ3y0VbU6WLdOOm67q-2" value="Region" style="points=[[0,0],[0.25,0],[0.5,0],[0.75,0],[1,0],[1,0.25],[1,0.5],[1,0.75],[1,1],[0.75,1],[0.5,1],[0.25,1],[0,1],[0,0.75],[0,0.5],[0,0.25]];outlineConnect=0;gradientColor=none;html=1;whiteSpace=wrap;fontSize=12;fontStyle=0;container=1;pointerEvents=0;collapsible=0;recursiveResize=0;shape=mxgraph.aws4.group;grIcon=mxgraph.aws4.group_region;strokeColor=#00A4A6;fillColor=none;verticalAlign=top;align=left;spacingLeft=30;fontColor=#147EBA;dashed=1;" vertex="1" parent="1">
          <mxGeometry x="680" y="110" width="910" height="1010" as="geometry" />
        </mxCell>
        <mxCell id="GoWQ3y0VbU6WLdOOm67q-7" value="VPC" style="points=[[0,0],[0.25,0],[0.5,0],[0.75,0],[1,0],[1,0.25],[1,0.5],[1,0.75],[1,1],[0.75,1],[0.5,1],[0.25,1],[0,1],[0,0.75],[0,0.5],[0,0.25]];outlineConnect=0;gradientColor=none;html=1;whiteSpace=wrap;fontSize=12;fontStyle=0;container=1;pointerEvents=0;collapsible=0;recursiveResize=0;shape=mxgraph.aws4.group;grIcon=mxgraph.aws4.group_vpc2;strokeColor=#8C4FFF;fillColor=none;verticalAlign=top;align=left;spacingLeft=30;fontColor=#AAB7B8;dashed=0;" vertex="1" parent="1">
          <mxGeometry x="700" y="140" width="860" height="970" as="geometry" />
        </mxCell>
        <mxCell id="GoWQ3y0VbU6WLdOOm67q-4" value="Availability Zone" style="fillColor=none;strokeColor=#147EBA;dashed=1;verticalAlign=top;fontStyle=0;fontColor=#147EBA;whiteSpace=wrap;html=1;" vertex="1" parent="GoWQ3y0VbU6WLdOOm67q-7">
          <mxGeometry x="150" y="30" width="680" height="300" as="geometry" />
        </mxCell>
        <mxCell id="GoWQ3y0VbU6WLdOOm67q-8" value="Public subnet" style="points=[[0,0],[0.25,0],[0.5,0],[0.75,0],[1,0],[1,0.25],[1,0.5],[1,0.75],[1,1],[0.75,1],[0.5,1],[0.25,1],[0,1],[0,0.75],[0,0.5],[0,0.25]];outlineConnect=0;gradientColor=none;html=1;whiteSpace=wrap;fontSize=12;fontStyle=0;container=1;pointerEvents=0;collapsible=0;recursiveResize=0;shape=mxgraph.aws4.group;grIcon=mxgraph.aws4.group_security_group;grStroke=0;strokeColor=#7AA116;fillColor=#F2F6E8;verticalAlign=top;align=left;spacingLeft=30;fontColor=#248814;dashed=0;" vertex="1" parent="GoWQ3y0VbU6WLdOOm67q-7">
          <mxGeometry x="170" y="69.5" width="160" height="250.5" as="geometry" />
        </mxCell>
        <mxCell id="GoWQ3y0VbU6WLdOOm67q-13" value="NAT Gateway" style="sketch=0;outlineConnect=0;fontColor=#232F3E;gradientColor=none;fillColor=#8C4FFF;strokeColor=none;dashed=0;verticalLabelPosition=bottom;verticalAlign=top;align=center;html=1;fontSize=12;fontStyle=0;aspect=fixed;pointerEvents=1;shape=mxgraph.aws4.nat_gateway;" vertex="1" parent="GoWQ3y0VbU6WLdOOm67q-8">
          <mxGeometry x="49" y="40.5" width="50" height="50" as="geometry" />
        </mxCell>
        <mxCell id="GoWQ3y0VbU6WLdOOm67q-9" value="Private application subnet" style="points=[[0,0],[0.25,0],[0.5,0],[0.75,0],[1,0],[1,0.25],[1,0.5],[1,0.75],[1,1],[0.75,1],[0.5,1],[0.25,1],[0,1],[0,0.75],[0,0.5],[0,0.25]];outlineConnect=0;gradientColor=none;html=1;whiteSpace=wrap;fontSize=12;fontStyle=0;container=1;pointerEvents=0;collapsible=0;recursiveResize=0;shape=mxgraph.aws4.group;grIcon=mxgraph.aws4.group_security_group;grStroke=0;strokeColor=#00A4A6;fillColor=#E6F6F7;verticalAlign=top;align=left;spacingLeft=30;fontColor=#147EBA;dashed=0;" vertex="1" parent="GoWQ3y0VbU6WLdOOm67q-7">
          <mxGeometry x="390" y="69.5" width="190" height="240.5" as="geometry" />
        </mxCell>
        <mxCell id="GoWQ3y0VbU6WLdOOm67q-16" value="EKS nodes" style="sketch=0;points=[[0,0,0],[0.25,0,0],[0.5,0,0],[0.75,0,0],[1,0,0],[0,1,0],[0.25,1,0],[0.5,1,0],[0.75,1,0],[1,1,0],[0,0.25,0],[0,0.5,0],[0,0.75,0],[1,0.25,0],[1,0.5,0],[1,0.75,0]];outlineConnect=0;fontColor=#232F3E;fillColor=#ED7100;strokeColor=#ffffff;dashed=0;verticalLabelPosition=bottom;verticalAlign=top;align=center;html=1;fontSize=12;fontStyle=0;aspect=fixed;shape=mxgraph.aws4.resourceIcon;resIcon=mxgraph.aws4.eks;" vertex="1" parent="GoWQ3y0VbU6WLdOOm67q-9">
          <mxGeometry x="75" y="92.5" width="50" height="50" as="geometry" />
        </mxCell>
        <mxCell id="GoWQ3y0VbU6WLdOOm67q-22" style="edgeStyle=orthogonalEdgeStyle;rounded=0;orthogonalLoop=1;jettySize=auto;html=1;flowAnimation=1;" edge="1" parent="GoWQ3y0VbU6WLdOOm67q-7" source="GoWQ3y0VbU6WLdOOm67q-12" target="GoWQ3y0VbU6WLdOOm67q-14">
          <mxGeometry relative="1" as="geometry">
            <Array as="points">
              <mxPoint x="110" y="170" />
              <mxPoint x="110" y="235" />
            </Array>
          </mxGeometry>
        </mxCell>
        <mxCell id="GoWQ3y0VbU6WLdOOm67q-12" value="Internet&lt;div&gt;Gateway&lt;/div&gt;" style="sketch=0;outlineConnect=0;fontColor=#232F3E;gradientColor=none;fillColor=#8C4FFF;strokeColor=none;dashed=0;verticalLabelPosition=bottom;verticalAlign=top;align=center;html=1;fontSize=12;fontStyle=0;aspect=fixed;pointerEvents=1;shape=mxgraph.aws4.internet_gateway;" vertex="1" parent="GoWQ3y0VbU6WLdOOm67q-7">
          <mxGeometry x="30" y="130" width="50" height="50" as="geometry" />
        </mxCell>
        <mxCell id="GoWQ3y0VbU6WLdOOm67q-14" value="Application&lt;div&gt;Load Balancer&lt;/div&gt;" style="sketch=0;outlineConnect=0;fontColor=#232F3E;gradientColor=none;fillColor=#8C4FFF;strokeColor=none;dashed=0;verticalLabelPosition=bottom;verticalAlign=top;align=center;html=1;fontSize=12;fontStyle=0;aspect=fixed;pointerEvents=1;shape=mxgraph.aws4.application_load_balancer;" vertex="1" parent="GoWQ3y0VbU6WLdOOm67q-7">
          <mxGeometry x="219" y="210" width="50" height="50" as="geometry" />
        </mxCell>
        <mxCell id="GoWQ3y0VbU6WLdOOm67q-20" style="edgeStyle=orthogonalEdgeStyle;rounded=0;orthogonalLoop=1;jettySize=auto;html=1;flowAnimation=1;dashed=1;" edge="1" parent="GoWQ3y0VbU6WLdOOm67q-7" source="GoWQ3y0VbU6WLdOOm67q-16" target="GoWQ3y0VbU6WLdOOm67q-13">
          <mxGeometry relative="1" as="geometry">
            <Array as="points">
              <mxPoint x="370" y="187" />
              <mxPoint x="370" y="135" />
            </Array>
          </mxGeometry>
        </mxCell>
        <mxCell id="GoWQ3y0VbU6WLdOOm67q-18" value="Private database subnet" style="points=[[0,0],[0.25,0],[0.5,0],[0.75,0],[1,0],[1,0.25],[1,0.5],[1,0.75],[1,1],[0.75,1],[0.5,1],[0.25,1],[0,1],[0,0.75],[0,0.5],[0,0.25]];outlineConnect=0;gradientColor=none;html=1;whiteSpace=wrap;fontSize=12;fontStyle=0;container=1;pointerEvents=0;collapsible=0;recursiveResize=0;shape=mxgraph.aws4.group;grIcon=mxgraph.aws4.group_security_group;grStroke=0;strokeColor=#00A4A6;fillColor=#E6F6F7;verticalAlign=top;align=left;spacingLeft=30;fontColor=#147EBA;dashed=0;" vertex="1" parent="GoWQ3y0VbU6WLdOOm67q-7">
          <mxGeometry x="610" y="74.5" width="190" height="240.5" as="geometry" />
        </mxCell>
        <mxCell id="GoWQ3y0VbU6WLdOOm67q-15" value="RDS instance" style="sketch=0;points=[[0,0,0],[0.25,0,0],[0.5,0,0],[0.75,0,0],[1,0,0],[0,1,0],[0.25,1,0],[0.5,1,0],[0.75,1,0],[1,1,0],[0,0.25,0],[0,0.5,0],[0,0.75,0],[1,0.25,0],[1,0.5,0],[1,0.75,0]];outlineConnect=0;fontColor=#232F3E;fillColor=#C925D1;strokeColor=#ffffff;dashed=0;verticalLabelPosition=bottom;verticalAlign=top;align=center;html=1;fontSize=12;fontStyle=0;aspect=fixed;shape=mxgraph.aws4.resourceIcon;resIcon=mxgraph.aws4.rds;" vertex="1" parent="GoWQ3y0VbU6WLdOOm67q-18">
          <mxGeometry x="70" y="87.5" width="50" height="50" as="geometry" />
        </mxCell>
        <mxCell id="GoWQ3y0VbU6WLdOOm67q-19" style="edgeStyle=orthogonalEdgeStyle;rounded=0;orthogonalLoop=1;jettySize=auto;html=1;flowAnimation=1;dashed=1;" edge="1" parent="GoWQ3y0VbU6WLdOOm67q-7" source="GoWQ3y0VbU6WLdOOm67q-13" target="GoWQ3y0VbU6WLdOOm67q-12">
          <mxGeometry relative="1" as="geometry">
            <Array as="points">
              <mxPoint x="120" y="135" />
              <mxPoint x="120" y="155" />
            </Array>
          </mxGeometry>
        </mxCell>
        <mxCell id="GoWQ3y0VbU6WLdOOm67q-21" style="edgeStyle=orthogonalEdgeStyle;rounded=0;orthogonalLoop=1;jettySize=auto;html=1;entryX=0;entryY=0.5;entryDx=0;entryDy=0;entryPerimeter=0;flowAnimation=1;" edge="1" parent="GoWQ3y0VbU6WLdOOm67q-7" source="GoWQ3y0VbU6WLdOOm67q-16" target="GoWQ3y0VbU6WLdOOm67q-15">
          <mxGeometry relative="1" as="geometry" />
        </mxCell>
        <mxCell id="GoWQ3y0VbU6WLdOOm67q-23" style="edgeStyle=orthogonalEdgeStyle;rounded=0;orthogonalLoop=1;jettySize=auto;html=1;entryX=0;entryY=0.75;entryDx=0;entryDy=0;entryPerimeter=0;flowAnimation=1;" edge="1" parent="GoWQ3y0VbU6WLdOOm67q-7" source="GoWQ3y0VbU6WLdOOm67q-14" target="GoWQ3y0VbU6WLdOOm67q-16">
          <mxGeometry relative="1" as="geometry" />
        </mxCell>
        <mxCell id="GoWQ3y0VbU6WLdOOm67q-24" value="Availability Zone" style="fillColor=none;strokeColor=#147EBA;dashed=1;verticalAlign=top;fontStyle=0;fontColor=#147EBA;whiteSpace=wrap;html=1;" vertex="1" parent="GoWQ3y0VbU6WLdOOm67q-7">
          <mxGeometry x="150" y="337" width="680" height="303" as="geometry" />
        </mxCell>
        <mxCell id="GoWQ3y0VbU6WLdOOm67q-25" value="Public subnet" style="points=[[0,0],[0.25,0],[0.5,0],[0.75,0],[1,0],[1,0.25],[1,0.5],[1,0.75],[1,1],[0.75,1],[0.5,1],[0.25,1],[0,1],[0,0.75],[0,0.5],[0,0.25]];outlineConnect=0;gradientColor=none;html=1;whiteSpace=wrap;fontSize=12;fontStyle=0;container=1;pointerEvents=0;collapsible=0;recursiveResize=0;shape=mxgraph.aws4.group;grIcon=mxgraph.aws4.group_security_group;grStroke=0;strokeColor=#7AA116;fillColor=#F2F6E8;verticalAlign=top;align=left;spacingLeft=30;fontColor=#248814;dashed=0;" vertex="1" parent="GoWQ3y0VbU6WLdOOm67q-7">
          <mxGeometry x="170" y="376.5" width="160" height="250.5" as="geometry" />
        </mxCell>
        <mxCell id="GoWQ3y0VbU6WLdOOm67q-26" value="NAT Gateway" style="sketch=0;outlineConnect=0;fontColor=#232F3E;gradientColor=none;fillColor=#8C4FFF;strokeColor=none;dashed=0;verticalLabelPosition=bottom;verticalAlign=top;align=center;html=1;fontSize=12;fontStyle=0;aspect=fixed;pointerEvents=1;shape=mxgraph.aws4.nat_gateway;" vertex="1" parent="GoWQ3y0VbU6WLdOOm67q-25">
          <mxGeometry x="49" y="40.5" width="50" height="50" as="geometry" />
        </mxCell>
        <mxCell id="GoWQ3y0VbU6WLdOOm67q-27" value="Private application subnet" style="points=[[0,0],[0.25,0],[0.5,0],[0.75,0],[1,0],[1,0.25],[1,0.5],[1,0.75],[1,1],[0.75,1],[0.5,1],[0.25,1],[0,1],[0,0.75],[0,0.5],[0,0.25]];outlineConnect=0;gradientColor=none;html=1;whiteSpace=wrap;fontSize=12;fontStyle=0;container=1;pointerEvents=0;collapsible=0;recursiveResize=0;shape=mxgraph.aws4.group;grIcon=mxgraph.aws4.group_security_group;grStroke=0;strokeColor=#00A4A6;fillColor=#E6F6F7;verticalAlign=top;align=left;spacingLeft=30;fontColor=#147EBA;dashed=0;" vertex="1" parent="GoWQ3y0VbU6WLdOOm67q-7">
          <mxGeometry x="390" y="376.5" width="190" height="240.5" as="geometry" />
        </mxCell>
        <mxCell id="GoWQ3y0VbU6WLdOOm67q-28" value="EKS nodes" style="sketch=0;points=[[0,0,0],[0.25,0,0],[0.5,0,0],[0.75,0,0],[1,0,0],[0,1,0],[0.25,1,0],[0.5,1,0],[0.75,1,0],[1,1,0],[0,0.25,0],[0,0.5,0],[0,0.75,0],[1,0.25,0],[1,0.5,0],[1,0.75,0]];outlineConnect=0;fontColor=#232F3E;fillColor=#ED7100;strokeColor=#ffffff;dashed=0;verticalLabelPosition=bottom;verticalAlign=top;align=center;html=1;fontSize=12;fontStyle=0;aspect=fixed;shape=mxgraph.aws4.resourceIcon;resIcon=mxgraph.aws4.eks;" vertex="1" parent="GoWQ3y0VbU6WLdOOm67q-27">
          <mxGeometry x="75" y="92.5" width="50" height="50" as="geometry" />
        </mxCell>
        <mxCell id="GoWQ3y0VbU6WLdOOm67q-29" value="Application&lt;div&gt;Load Balancer&lt;/div&gt;" style="sketch=0;outlineConnect=0;fontColor=#232F3E;gradientColor=none;fillColor=#8C4FFF;strokeColor=none;dashed=0;verticalLabelPosition=bottom;verticalAlign=top;align=center;html=1;fontSize=12;fontStyle=0;aspect=fixed;pointerEvents=1;shape=mxgraph.aws4.application_load_balancer;" vertex="1" parent="GoWQ3y0VbU6WLdOOm67q-7">
          <mxGeometry x="219" y="517" width="50" height="50" as="geometry" />
        </mxCell>
        <mxCell id="GoWQ3y0VbU6WLdOOm67q-30" style="edgeStyle=orthogonalEdgeStyle;rounded=0;orthogonalLoop=1;jettySize=auto;html=1;flowAnimation=1;dashed=1;" edge="1" parent="GoWQ3y0VbU6WLdOOm67q-7" source="GoWQ3y0VbU6WLdOOm67q-28" target="GoWQ3y0VbU6WLdOOm67q-26">
          <mxGeometry relative="1" as="geometry">
            <Array as="points">
              <mxPoint x="370" y="494" />
              <mxPoint x="370" y="442" />
            </Array>
          </mxGeometry>
        </mxCell>
        <mxCell id="GoWQ3y0VbU6WLdOOm67q-31" value="Private database subnet" style="points=[[0,0],[0.25,0],[0.5,0],[0.75,0],[1,0],[1,0.25],[1,0.5],[1,0.75],[1,1],[0.75,1],[0.5,1],[0.25,1],[0,1],[0,0.75],[0,0.5],[0,0.25]];outlineConnect=0;gradientColor=none;html=1;whiteSpace=wrap;fontSize=12;fontStyle=0;container=1;pointerEvents=0;collapsible=0;recursiveResize=0;shape=mxgraph.aws4.group;grIcon=mxgraph.aws4.group_security_group;grStroke=0;strokeColor=#00A4A6;fillColor=#E6F6F7;verticalAlign=top;align=left;spacingLeft=30;fontColor=#147EBA;dashed=0;" vertex="1" parent="GoWQ3y0VbU6WLdOOm67q-7">
          <mxGeometry x="610" y="381.5" width="190" height="240.5" as="geometry" />
        </mxCell>
        <mxCell id="GoWQ3y0VbU6WLdOOm67q-32" value="RDS instance" style="sketch=0;points=[[0,0,0],[0.25,0,0],[0.5,0,0],[0.75,0,0],[1,0,0],[0,1,0],[0.25,1,0],[0.5,1,0],[0.75,1,0],[1,1,0],[0,0.25,0],[0,0.5,0],[0,0.75,0],[1,0.25,0],[1,0.5,0],[1,0.75,0]];outlineConnect=0;fontColor=#232F3E;fillColor=#C925D1;strokeColor=#ffffff;dashed=0;verticalLabelPosition=bottom;verticalAlign=top;align=center;html=1;fontSize=12;fontStyle=0;aspect=fixed;shape=mxgraph.aws4.resourceIcon;resIcon=mxgraph.aws4.rds;" vertex="1" parent="GoWQ3y0VbU6WLdOOm67q-31">
          <mxGeometry x="70" y="87.5" width="50" height="50" as="geometry" />
        </mxCell>
        <mxCell id="GoWQ3y0VbU6WLdOOm67q-33" style="edgeStyle=orthogonalEdgeStyle;rounded=0;orthogonalLoop=1;jettySize=auto;html=1;entryX=0;entryY=0.5;entryDx=0;entryDy=0;entryPerimeter=0;flowAnimation=1;" edge="1" parent="GoWQ3y0VbU6WLdOOm67q-7" source="GoWQ3y0VbU6WLdOOm67q-28" target="GoWQ3y0VbU6WLdOOm67q-32">
          <mxGeometry relative="1" as="geometry" />
        </mxCell>
        <mxCell id="GoWQ3y0VbU6WLdOOm67q-34" style="edgeStyle=orthogonalEdgeStyle;rounded=0;orthogonalLoop=1;jettySize=auto;html=1;entryX=0;entryY=0.75;entryDx=0;entryDy=0;entryPerimeter=0;flowAnimation=1;" edge="1" parent="GoWQ3y0VbU6WLdOOm67q-7" source="GoWQ3y0VbU6WLdOOm67q-29" target="GoWQ3y0VbU6WLdOOm67q-28">
          <mxGeometry relative="1" as="geometry" />
        </mxCell>
        <mxCell id="GoWQ3y0VbU6WLdOOm67q-17" value="ECR" style="sketch=0;points=[[0,0,0],[0.25,0,0],[0.5,0,0],[0.75,0,0],[1,0,0],[0,1,0],[0.25,1,0],[0.5,1,0],[0.75,1,0],[1,1,0],[0,0.25,0],[0,0.5,0],[0,0.75,0],[1,0.25,0],[1,0.5,0],[1,0.75,0]];outlineConnect=0;fontColor=#232F3E;fillColor=#ED7100;strokeColor=#ffffff;dashed=0;verticalLabelPosition=bottom;verticalAlign=top;align=center;html=1;fontSize=12;fontStyle=0;aspect=fixed;shape=mxgraph.aws4.resourceIcon;resIcon=mxgraph.aws4.ecr;" vertex="1" parent="GoWQ3y0VbU6WLdOOm67q-7">
          <mxGeometry x="30" y="440" width="50" height="50" as="geometry" />
        </mxCell>
        <mxCell id="GoWQ3y0VbU6WLdOOm67q-11" value="Hosted Zone" style="sketch=0;points=[[0,0,0],[0.25,0,0],[0.5,0,0],[0.75,0,0],[1,0,0],[0,1,0],[0.25,1,0],[0.5,1,0],[0.75,1,0],[1,1,0],[0,0.25,0],[0,0.5,0],[0,0.75,0],[1,0.25,0],[1,0.5,0],[1,0.75,0]];outlineConnect=0;fontColor=#232F3E;fillColor=#8C4FFF;strokeColor=#ffffff;dashed=0;verticalLabelPosition=bottom;verticalAlign=top;align=center;html=1;fontSize=12;fontStyle=0;aspect=fixed;shape=mxgraph.aws4.resourceIcon;resIcon=mxgraph.aws4.route_53;" vertex="1" parent="GoWQ3y0VbU6WLdOOm67q-7">
          <mxGeometry x="30" y="350" width="50" height="50" as="geometry" />
        </mxCell>
        <mxCell id="GoWQ3y0VbU6WLdOOm67q-35" value="Availability Zone" style="fillColor=none;strokeColor=#147EBA;dashed=1;verticalAlign=top;fontStyle=0;fontColor=#147EBA;whiteSpace=wrap;html=1;" vertex="1" parent="GoWQ3y0VbU6WLdOOm67q-7">
          <mxGeometry x="150" y="650" width="680" height="300" as="geometry" />
        </mxCell>
        <mxCell id="GoWQ3y0VbU6WLdOOm67q-36" value="Public subnet" style="points=[[0,0],[0.25,0],[0.5,0],[0.75,0],[1,0],[1,0.25],[1,0.5],[1,0.75],[1,1],[0.75,1],[0.5,1],[0.25,1],[0,1],[0,0.75],[0,0.5],[0,0.25]];outlineConnect=0;gradientColor=none;html=1;whiteSpace=wrap;fontSize=12;fontStyle=0;container=1;pointerEvents=0;collapsible=0;recursiveResize=0;shape=mxgraph.aws4.group;grIcon=mxgraph.aws4.group_security_group;grStroke=0;strokeColor=#7AA116;fillColor=#F2F6E8;verticalAlign=top;align=left;spacingLeft=30;fontColor=#248814;dashed=0;" vertex="1" parent="GoWQ3y0VbU6WLdOOm67q-7">
          <mxGeometry x="170" y="689.5" width="160" height="250.5" as="geometry" />
        </mxCell>
        <mxCell id="GoWQ3y0VbU6WLdOOm67q-37" value="NAT Gateway" style="sketch=0;outlineConnect=0;fontColor=#232F3E;gradientColor=none;fillColor=#8C4FFF;strokeColor=none;dashed=0;verticalLabelPosition=bottom;verticalAlign=top;align=center;html=1;fontSize=12;fontStyle=0;aspect=fixed;pointerEvents=1;shape=mxgraph.aws4.nat_gateway;" vertex="1" parent="GoWQ3y0VbU6WLdOOm67q-36">
          <mxGeometry x="49" y="40.5" width="50" height="50" as="geometry" />
        </mxCell>
        <mxCell id="GoWQ3y0VbU6WLdOOm67q-38" value="Private application subnet" style="points=[[0,0],[0.25,0],[0.5,0],[0.75,0],[1,0],[1,0.25],[1,0.5],[1,0.75],[1,1],[0.75,1],[0.5,1],[0.25,1],[0,1],[0,0.75],[0,0.5],[0,0.25]];outlineConnect=0;gradientColor=none;html=1;whiteSpace=wrap;fontSize=12;fontStyle=0;container=1;pointerEvents=0;collapsible=0;recursiveResize=0;shape=mxgraph.aws4.group;grIcon=mxgraph.aws4.group_security_group;grStroke=0;strokeColor=#00A4A6;fillColor=#E6F6F7;verticalAlign=top;align=left;spacingLeft=30;fontColor=#147EBA;dashed=0;" vertex="1" parent="GoWQ3y0VbU6WLdOOm67q-7">
          <mxGeometry x="390" y="689.5" width="190" height="240.5" as="geometry" />
        </mxCell>
        <mxCell id="GoWQ3y0VbU6WLdOOm67q-39" value="EKS nodes" style="sketch=0;points=[[0,0,0],[0.25,0,0],[0.5,0,0],[0.75,0,0],[1,0,0],[0,1,0],[0.25,1,0],[0.5,1,0],[0.75,1,0],[1,1,0],[0,0.25,0],[0,0.5,0],[0,0.75,0],[1,0.25,0],[1,0.5,0],[1,0.75,0]];outlineConnect=0;fontColor=#232F3E;fillColor=#ED7100;strokeColor=#ffffff;dashed=0;verticalLabelPosition=bottom;verticalAlign=top;align=center;html=1;fontSize=12;fontStyle=0;aspect=fixed;shape=mxgraph.aws4.resourceIcon;resIcon=mxgraph.aws4.eks;" vertex="1" parent="GoWQ3y0VbU6WLdOOm67q-38">
          <mxGeometry x="75" y="92.5" width="50" height="50" as="geometry" />
        </mxCell>
        <mxCell id="GoWQ3y0VbU6WLdOOm67q-40" value="Application&lt;div&gt;Load Balancer&lt;/div&gt;" style="sketch=0;outlineConnect=0;fontColor=#232F3E;gradientColor=none;fillColor=#8C4FFF;strokeColor=none;dashed=0;verticalLabelPosition=bottom;verticalAlign=top;align=center;html=1;fontSize=12;fontStyle=0;aspect=fixed;pointerEvents=1;shape=mxgraph.aws4.application_load_balancer;" vertex="1" parent="GoWQ3y0VbU6WLdOOm67q-7">
          <mxGeometry x="219" y="830" width="50" height="50" as="geometry" />
        </mxCell>
        <mxCell id="GoWQ3y0VbU6WLdOOm67q-41" style="edgeStyle=orthogonalEdgeStyle;rounded=0;orthogonalLoop=1;jettySize=auto;html=1;flowAnimation=1;dashed=1;" edge="1" parent="GoWQ3y0VbU6WLdOOm67q-7" source="GoWQ3y0VbU6WLdOOm67q-39" target="GoWQ3y0VbU6WLdOOm67q-37">
          <mxGeometry relative="1" as="geometry">
            <Array as="points">
              <mxPoint x="370" y="807" />
              <mxPoint x="370" y="755" />
            </Array>
          </mxGeometry>
        </mxCell>
        <mxCell id="GoWQ3y0VbU6WLdOOm67q-42" value="Private database subnet" style="points=[[0,0],[0.25,0],[0.5,0],[0.75,0],[1,0],[1,0.25],[1,0.5],[1,0.75],[1,1],[0.75,1],[0.5,1],[0.25,1],[0,1],[0,0.75],[0,0.5],[0,0.25]];outlineConnect=0;gradientColor=none;html=1;whiteSpace=wrap;fontSize=12;fontStyle=0;container=1;pointerEvents=0;collapsible=0;recursiveResize=0;shape=mxgraph.aws4.group;grIcon=mxgraph.aws4.group_security_group;grStroke=0;strokeColor=#00A4A6;fillColor=#E6F6F7;verticalAlign=top;align=left;spacingLeft=30;fontColor=#147EBA;dashed=0;" vertex="1" parent="GoWQ3y0VbU6WLdOOm67q-7">
          <mxGeometry x="610" y="694.5" width="190" height="240.5" as="geometry" />
        </mxCell>
        <mxCell id="GoWQ3y0VbU6WLdOOm67q-43" value="RDS instance" style="sketch=0;points=[[0,0,0],[0.25,0,0],[0.5,0,0],[0.75,0,0],[1,0,0],[0,1,0],[0.25,1,0],[0.5,1,0],[0.75,1,0],[1,1,0],[0,0.25,0],[0,0.5,0],[0,0.75,0],[1,0.25,0],[1,0.5,0],[1,0.75,0]];outlineConnect=0;fontColor=#232F3E;fillColor=#C925D1;strokeColor=#ffffff;dashed=0;verticalLabelPosition=bottom;verticalAlign=top;align=center;html=1;fontSize=12;fontStyle=0;aspect=fixed;shape=mxgraph.aws4.resourceIcon;resIcon=mxgraph.aws4.rds;" vertex="1" parent="GoWQ3y0VbU6WLdOOm67q-42">
          <mxGeometry x="70" y="87.5" width="50" height="50" as="geometry" />
        </mxCell>
        <mxCell id="GoWQ3y0VbU6WLdOOm67q-44" style="edgeStyle=orthogonalEdgeStyle;rounded=0;orthogonalLoop=1;jettySize=auto;html=1;entryX=0;entryY=0.5;entryDx=0;entryDy=0;entryPerimeter=0;flowAnimation=1;" edge="1" parent="GoWQ3y0VbU6WLdOOm67q-7" source="GoWQ3y0VbU6WLdOOm67q-39" target="GoWQ3y0VbU6WLdOOm67q-43">
          <mxGeometry relative="1" as="geometry" />
        </mxCell>
        <mxCell id="GoWQ3y0VbU6WLdOOm67q-45" style="edgeStyle=orthogonalEdgeStyle;rounded=0;orthogonalLoop=1;jettySize=auto;html=1;entryX=0;entryY=0.75;entryDx=0;entryDy=0;entryPerimeter=0;flowAnimation=1;" edge="1" parent="GoWQ3y0VbU6WLdOOm67q-7" source="GoWQ3y0VbU6WLdOOm67q-40" target="GoWQ3y0VbU6WLdOOm67q-39">
          <mxGeometry relative="1" as="geometry" />
        </mxCell>
        <mxCell id="GoWQ3y0VbU6WLdOOm67q-46" style="edgeStyle=orthogonalEdgeStyle;rounded=0;orthogonalLoop=1;jettySize=auto;html=1;flowAnimation=1;" edge="1" parent="GoWQ3y0VbU6WLdOOm67q-7" source="GoWQ3y0VbU6WLdOOm67q-12" target="GoWQ3y0VbU6WLdOOm67q-29">
          <mxGeometry relative="1" as="geometry">
            <mxPoint x="110" y="190" as="sourcePoint" />
            <mxPoint x="249" y="255" as="targetPoint" />
            <Array as="points">
              <mxPoint x="110" y="170" />
              <mxPoint x="110" y="542" />
            </Array>
          </mxGeometry>
        </mxCell>
        <mxCell id="GoWQ3y0VbU6WLdOOm67q-47" style="edgeStyle=orthogonalEdgeStyle;rounded=0;orthogonalLoop=1;jettySize=auto;html=1;flowAnimation=1;dashed=1;" edge="1" parent="GoWQ3y0VbU6WLdOOm67q-7" source="GoWQ3y0VbU6WLdOOm67q-26" target="GoWQ3y0VbU6WLdOOm67q-12">
          <mxGeometry relative="1" as="geometry">
            <Array as="points">
              <mxPoint x="120" y="442" />
              <mxPoint x="120" y="155" />
            </Array>
          </mxGeometry>
        </mxCell>
        <mxCell id="GoWQ3y0VbU6WLdOOm67q-48" style="edgeStyle=orthogonalEdgeStyle;rounded=0;orthogonalLoop=1;jettySize=auto;html=1;flowAnimation=1;" edge="1" parent="GoWQ3y0VbU6WLdOOm67q-7" source="GoWQ3y0VbU6WLdOOm67q-12" target="GoWQ3y0VbU6WLdOOm67q-40">
          <mxGeometry relative="1" as="geometry">
            <Array as="points">
              <mxPoint x="110" y="170" />
              <mxPoint x="110" y="855" />
            </Array>
          </mxGeometry>
        </mxCell>
        <mxCell id="GoWQ3y0VbU6WLdOOm67q-49" style="edgeStyle=orthogonalEdgeStyle;rounded=0;orthogonalLoop=1;jettySize=auto;html=1;dashed=1;flowAnimation=1;" edge="1" parent="GoWQ3y0VbU6WLdOOm67q-7" source="GoWQ3y0VbU6WLdOOm67q-37" target="GoWQ3y0VbU6WLdOOm67q-12">
          <mxGeometry relative="1" as="geometry">
            <Array as="points">
              <mxPoint x="120" y="755" />
              <mxPoint x="120" y="155" />
            </Array>
          </mxGeometry>
        </mxCell>
        <mxCell id="GoWQ3y0VbU6WLdOOm67q-50" value="Cloudwatch" style="sketch=0;points=[[0,0,0],[0.25,0,0],[0.5,0,0],[0.75,0,0],[1,0,0],[0,1,0],[0.25,1,0],[0.5,1,0],[0.75,1,0],[1,1,0],[0,0.25,0],[0,0.5,0],[0,0.75,0],[1,0.25,0],[1,0.5,0],[1,0.75,0]];points=[[0,0,0],[0.25,0,0],[0.5,0,0],[0.75,0,0],[1,0,0],[0,1,0],[0.25,1,0],[0.5,1,0],[0.75,1,0],[1,1,0],[0,0.25,0],[0,0.5,0],[0,0.75,0],[1,0.25,0],[1,0.5,0],[1,0.75,0]];outlineConnect=0;fontColor=#232F3E;fillColor=#E7157B;strokeColor=#ffffff;dashed=0;verticalLabelPosition=bottom;verticalAlign=top;align=center;html=1;fontSize=12;fontStyle=0;aspect=fixed;shape=mxgraph.aws4.resourceIcon;resIcon=mxgraph.aws4.cloudwatch_2;" vertex="1" parent="GoWQ3y0VbU6WLdOOm67q-7">
          <mxGeometry x="30" y="530" width="50" height="50" as="geometry" />
        </mxCell>
        <mxCell id="GoWQ3y0VbU6WLdOOm67q-51" value="WAF" style="sketch=0;points=[[0,0,0],[0.25,0,0],[0.5,0,0],[0.75,0,0],[1,0,0],[0,1,0],[0.25,1,0],[0.5,1,0],[0.75,1,0],[1,1,0],[0,0.25,0],[0,0.5,0],[0,0.75,0],[1,0.25,0],[1,0.5,0],[1,0.75,0]];outlineConnect=0;fontColor=#232F3E;fillColor=#DD344C;strokeColor=#ffffff;dashed=0;verticalLabelPosition=bottom;verticalAlign=top;align=center;html=1;fontSize=12;fontStyle=0;aspect=fixed;shape=mxgraph.aws4.resourceIcon;resIcon=mxgraph.aws4.waf;" vertex="1" parent="GoWQ3y0VbU6WLdOOm67q-7">
          <mxGeometry x="30" y="622" width="50" height="50" as="geometry" />
        </mxCell>
        <mxCell id="GoWQ3y0VbU6WLdOOm67q-53" value="KMS" style="sketch=0;points=[[0,0,0],[0.25,0,0],[0.5,0,0],[0.75,0,0],[1,0,0],[0,1,0],[0.25,1,0],[0.5,1,0],[0.75,1,0],[1,1,0],[0,0.25,0],[0,0.5,0],[0,0.75,0],[1,0.25,0],[1,0.5,0],[1,0.75,0]];outlineConnect=0;fontColor=#232F3E;fillColor=#DD344C;strokeColor=#ffffff;dashed=0;verticalLabelPosition=bottom;verticalAlign=top;align=center;html=1;fontSize=12;fontStyle=0;aspect=fixed;shape=mxgraph.aws4.resourceIcon;resIcon=mxgraph.aws4.key_management_service;" vertex="1" parent="GoWQ3y0VbU6WLdOOm67q-7">
          <mxGeometry x="30" y="700" width="50" height="50" as="geometry" />
        </mxCell>
        <mxCell id="GoWQ3y0VbU6WLdOOm67q-54" value="Secrets&lt;div&gt;Manager&lt;/div&gt;" style="sketch=0;points=[[0,0,0],[0.25,0,0],[0.5,0,0],[0.75,0,0],[1,0,0],[0,1,0],[0.25,1,0],[0.5,1,0],[0.75,1,0],[1,1,0],[0,0.25,0],[0,0.5,0],[0,0.75,0],[1,0.25,0],[1,0.5,0],[1,0.75,0]];outlineConnect=0;fontColor=#232F3E;fillColor=#DD344C;strokeColor=#ffffff;dashed=0;verticalLabelPosition=bottom;verticalAlign=top;align=center;html=1;fontSize=12;fontStyle=0;aspect=fixed;shape=mxgraph.aws4.resourceIcon;resIcon=mxgraph.aws4.secrets_manager;" vertex="1" parent="GoWQ3y0VbU6WLdOOm67q-7">
          <mxGeometry x="30" y="780" width="50" height="50" as="geometry" />
        </mxCell>
        <mxCell id="GoWQ3y0VbU6WLdOOm67q-55" style="edgeStyle=orthogonalEdgeStyle;rounded=0;orthogonalLoop=1;jettySize=auto;html=1;flowAnimation=1;" edge="1" parent="1" source="GoWQ3y0VbU6WLdOOm67q-52" target="GoWQ3y0VbU6WLdOOm67q-12">
          <mxGeometry relative="1" as="geometry" />
        </mxCell>
        <mxCell id="GoWQ3y0VbU6WLdOOm67q-57" style="edgeStyle=orthogonalEdgeStyle;rounded=0;orthogonalLoop=1;jettySize=auto;html=1;flowAnimation=1;" edge="1" parent="1" source="GoWQ3y0VbU6WLdOOm67q-56" target="GoWQ3y0VbU6WLdOOm67q-52">
          <mxGeometry relative="1" as="geometry" />
        </mxCell>
        <mxCell id="GoWQ3y0VbU6WLdOOm67q-56" value="Internet" style="ellipse;shape=cloud;whiteSpace=wrap;html=1;fillColor=#dae8fc;strokeColor=#6c8ebf;fontSize=18;" vertex="1" parent="1">
          <mxGeometry x="240" y="250" width="170" height="90" as="geometry" />
        </mxCell>
      </root>
    </mxGraphModel>
  </diagram>
</mxfile>
